<?xml version="1.0"?>
<svg width="25" height="25" xmlns="http://www.w3.org/2000/svg" xmlns:svg="http://www.w3.org/2000/svg" class="ma">
 <g class="layer" display="inline">
  <title>Layer 1</title>
  <path d="m6.86,6.19c-0.04,0.08 -0.21,14.45 -0.24,14.44c-0.03,-0.01 6.08,-4.1 5.72,-4.2" fill="#ffc017" id="svg_7"/>
  <path d="m12.46,16.36c0,0 6.05,4.49 6.05,4.41c0,-0.08 -0.08,-15.52 -0.11,-15.54c-0.03,-0.01 -11.37,0.38 -11.4,0.37c-0.03,-0.01 -0.5,15.25 -0.54,15.23c-0.03,-0.01 6,-4.47 6,-4.47z" fill="#ffc017" id="svg_8" transform="matrix(1 0 0 1 0 0)"/>
  <path d="m18,2.5a0.5,0.5 0 0 1 1,0l0,2.5l2.5,0a0.5,0.5 0 0 1 0,1l-2.5,0l0,2.5a0.5,0.5 0 1 1 -1,0l0,-2.5l-2.5,0a0.5,0.5 0 0 1 0,-1l2.5,0l0,-2.5zm-11,4.5a1,1 0 0 1 1,-1l3.5,0a0.5,0.5 0 0 0 0,-1l-3.5,0a2,2 0 0 0 -2,2l0,14a0.5,0.5 0 0 0 0.8,0.4l5.7,-4.4l5.7,4.4a0.5,0.5 0 0 0 0.8,-0.4l0,-8.5a0.5,0.5 0 0 0 -1,0l0,7.48l-5.2,-4a0.5,0.5 0 0 0 -0.6,0l-5.2,4l0,-12.98z" fill="#292929" id="svg_1"/>
 </g>
</svg>